<svg width="77" height="60" viewBox="0 0 77 60" fill="none" xmlns="http://www.w3.org/2000/svg">
<path d="M76.6668 56.6666V60H73.3335V56.6666H76.6668Z" fill="#BC002D"/>
<path d="M76.6668 53.3098V56.6666L73.3335 56.6432V53.3098H76.6668Z" fill="#BC002D"/>
<path d="M76.6668 49.9765V53.3333L73.3335 53.3098V49.9765H76.6668Z" fill="#BC002D"/>
<path d="M76.6668 46.6666V49.9765H73.3335V46.6666H76.6668Z" fill="#BC002D"/>
<path d="M76.6668 43.3333V46.6667H73.3335V43.3333H76.6668Z" fill="#BC002D"/>
<path d="M76.6668 39.9999V43.3333H73.3335V39.9999H76.6668Z" fill="#BC002D"/>
<path d="M76.6668 36.6431V39.9999L73.3335 39.9765V36.6431H76.6668Z" fill="#BC002D"/>
<path d="M76.6668 33.3333V36.6432H73.3335V33.3333H76.6668Z" fill="#BC002D"/>
<path d="M76.6668 29.9765V33.3333L73.3335 33.3098V29.9765H76.6668Z" fill="#BC002D"/>
<path d="M76.6668 26.6666V29.9765H73.3335V26.6666H76.6668Z" fill="#BC002D"/>
<path d="M76.6668 23.3333V26.6666H73.3335V23.3333H76.6668Z" fill="#BC002D"/>
<path d="M76.6668 19.9765V23.3333L73.3335 23.3098V19.9765H76.6668Z" fill="#BC002D"/>
<path d="M76.6668 16.6666V19.9765H73.3335V16.6666H76.6668Z" fill="#BC002D"/>
<path d="M76.6668 13.3098V16.6666L73.3335 16.6432V13.3098H76.6668Z" fill="#BC002D"/>
<path d="M76.6668 9.99994V13.3098H73.3335V9.99994H76.6668Z" fill="#BC002D"/>
<path d="M76.6668 6.66663V9.99997H73.3335V6.66663H76.6668Z" fill="#BC002D"/>
<path d="M76.6668 3.30981V6.66662L73.3335 6.64316V3.30981H76.6668Z" fill="#BC002D"/>
<path d="M73.3333 56.6666V60H70V56.6666H73.3333Z" fill="#BC002D"/>
<path d="M73.3333 53.3098V56.6666L70 56.6432V53.3098H73.3333Z" fill="#F46788"/>
<path d="M73.3333 49.9765V53.3333L70 53.3098V49.9765H73.3333Z" fill="#BC002D"/>
<path d="M73.3333 46.6666V49.9765H70V46.6666H73.3333Z" fill="#FFAEC1"/>
<path d="M73.3333 43.3333V46.6667H70V43.3333H73.3333Z" fill="#FFAEC1"/>
<path d="M73.3333 39.9999V43.3333H70V39.9999H73.3333Z" fill="#FFAEC1"/>
<path d="M73.3333 36.6431V39.9999L70 39.9765V36.6431H73.3333Z" fill="#FFAEC1"/>
<path d="M73.3333 33.3333V36.6432H70V33.3333H73.3333Z" fill="#FFAEC1"/>
<path d="M73.3333 29.9765V33.3333L70 33.3098V29.9765H73.3333Z" fill="#FFAEC1"/>
<path d="M73.3333 26.6666V29.9765H70V26.6666H73.3333Z" fill="#FFAEC1"/>
<path d="M73.3333 23.3333V26.6666H70V23.3333H73.3333Z" fill="#FFAEC1"/>
<path d="M73.3333 19.9765V23.3333L70 23.3098V19.9765H73.3333Z" fill="#FFAEC1"/>
<path d="M73.3333 16.6666V19.9765H70V16.6666H73.3333Z" fill="#FFAEC1"/>
<path d="M73.3333 13.3098V16.6666L70 16.6432V13.3098H73.3333Z" fill="#FFAEC1"/>
<path d="M73.3333 9.99994V13.3098H70V9.99994H73.3333Z" fill="#FFAEC1"/>
<path d="M73.3333 6.66663V9.99997H70V6.66663H73.3333Z" fill="#FFAEC1"/>
<path d="M73.3333 3.30981V6.66662L70 6.64316V3.30981H73.3333Z" fill="#FFAEC1"/>
<path d="M73.3333 -6.10352e-05V3.3098H70V-6.10352e-05H73.3333Z" fill="#BC002D"/>
<path d="M70.0001 53.3098V56.6666L66.6667 56.6432V53.3098H70.0001Z" fill="#BC002D"/>
<path d="M70.0001 49.9765V53.3333L66.6667 53.3098V49.9765H70.0001Z" fill="#F46788"/>
<path d="M70.0001 46.6666V49.9765H66.6667V46.6666H70.0001Z" fill="#BC002D"/>
<path d="M70.0001 43.3333V46.6667H66.6667V43.3333H70.0001Z" fill="#FFAEC1"/>
<path d="M70.0001 39.9999V43.3333H66.6667V39.9999H70.0001Z" fill="#FFAEC1"/>
<path d="M70.0001 36.6431V39.9999L66.6667 39.9765V36.6431H70.0001Z" fill="#FFAEC1"/>
<path d="M70.0001 33.3333V36.6432H66.6667V33.3333H70.0001Z" fill="#FFAEC1"/>
<path d="M70.0001 29.9765V33.3333L66.6667 33.3098V29.9765H70.0001Z" fill="#FFAEC1"/>
<path d="M70.0001 26.6666V29.9765H66.6667V26.6666H70.0001Z" fill="#FFAEC1"/>
<path d="M70.0001 23.3333V26.6666H66.6667V23.3333H70.0001Z" fill="#FFAEC1"/>
<path d="M70.0001 19.9765V23.3333L66.6667 23.3098V19.9765H70.0001Z" fill="#FFAEC1"/>
<path d="M70.0001 16.6666V19.9765H66.6667V16.6666H70.0001Z" fill="#FFAEC1"/>
<path d="M70.0001 13.3098V16.6666L66.6667 16.6432V13.3098H70.0001Z" fill="#FFAEC1"/>
<path d="M70.0001 9.99994V13.3098H66.6667V9.99994H70.0001Z" fill="#FFAEC1"/>
<path d="M70.0001 6.66663V9.99997H66.6667V6.66663H70.0001Z" fill="#FFAEC1"/>
<path d="M70.0001 3.30981V6.66662L66.6667 6.64316V3.30981H70.0001Z" fill="#FFAEC1"/>
<path d="M70.0001 -6.10352e-05V3.3098H66.6667V-6.10352e-05H70.0001Z" fill="#BC002D"/>
<path d="M66.6668 53.3098V56.6666L63.3335 56.6432V53.3098H66.6668Z" fill="#BC002D"/>
<path d="M66.6668 49.9765V53.3333L63.3335 53.3098V49.9765H66.6668Z" fill="#F46788"/>
<path d="M66.6668 46.6666V49.9765H63.3335V46.6666H66.6668Z" fill="#BC002D"/>
<path d="M66.6668 43.3333V46.6667H63.3335V43.3333H66.6668Z" fill="#FFAEC1"/>
<path d="M66.6668 39.9999V43.3333H63.3335V39.9999H66.6668Z" fill="#FFAEC1"/>
<path d="M66.6668 36.6431V39.9999L63.3335 39.9765V36.6431H66.6668Z" fill="#BC002D"/>
<path d="M66.6668 33.3333V36.6432H63.3335V33.3333H66.6668Z" fill="#FFAEC1"/>
<path d="M66.6668 29.9765V33.3333L63.3335 33.3098V29.9765H66.6668Z" fill="#BC002D"/>
<path d="M66.6668 26.6666V29.9765H63.3335V26.6666H66.6668Z" fill="#FFAEC1"/>
<path d="M66.6668 23.3333V26.6666H63.3335V23.3333H66.6668Z" fill="#BC002D"/>
<path d="M66.6668 19.9765V23.3333L63.3335 23.3098V19.9765H66.6668Z" fill="#FFAEC1"/>
<path d="M66.6668 16.6666V19.9765H63.3335V16.6666H66.6668Z" fill="#BC002D"/>
<path d="M66.6668 13.3098V16.6666L63.3335 16.6432V13.3098H66.6668Z" fill="#FFAEC1"/>
<path d="M66.6668 9.99994V13.3098H63.3335V9.99994H66.6668Z" fill="#BC002D"/>
<path d="M66.6668 6.66663V9.99997H63.3335V6.66663H66.6668Z" fill="#FFAEC1"/>
<path d="M66.6668 3.30981V6.66662L63.3335 6.64316V3.30981H66.6668Z" fill="#FFAEC1"/>
<path d="M66.6668 -6.10352e-05V3.3098H63.3335V-6.10352e-05H66.6668Z" fill="#BC002D"/>
<path d="M63.3336 53.3098V56.6666L60.0002 56.6432V53.3098H63.3336Z" fill="#BC002D"/>
<path d="M63.3336 49.9765V53.3333L60.0002 53.3098V49.9765H63.3336Z" fill="#F46788"/>
<path d="M63.3336 46.6666V49.9765H60.0002V46.6666H63.3336Z" fill="#BC002D"/>
<path d="M63.3336 43.3333V46.6667H60.0002V43.3333H63.3336Z" fill="#FFAEC1"/>
<path d="M63.3336 39.9999V43.3333H60.0002V39.9999H63.3336Z" fill="#FFAEC1"/>
<path d="M63.3336 36.6431V39.9999L60.0002 39.9765V36.6431H63.3336Z" fill="#BC002D"/>
<path d="M63.3336 33.3333V36.6432H60.0002V33.3333H63.3336Z" fill="#FFAEC1"/>
<path d="M63.3336 29.9765V33.3333L60.0002 33.3098V29.9765H63.3336Z" fill="#BC002D"/>
<path d="M63.3336 26.6666V29.9765H60.0002V26.6666H63.3336Z" fill="#FFAEC1"/>
<path d="M63.3336 23.3333V26.6666H60.0002V23.3333H63.3336Z" fill="#BC002D"/>
<path d="M63.3336 19.9765V23.3333L60.0002 23.3098V19.9765H63.3336Z" fill="#FFAEC1"/>
<path d="M63.3336 16.6666V19.9765H60.0002V16.6666H63.3336Z" fill="#BC002D"/>
<path d="M63.3336 13.3098V16.6666L60.0002 16.6432V13.3098H63.3336Z" fill="#FFAEC1"/>
<path d="M63.3336 9.99994V13.3098H60.0002V9.99994H63.3336Z" fill="#BC002D"/>
<path d="M63.3336 6.66663V9.99997H60.0002V6.66663H63.3336Z" fill="#FFAEC1"/>
<path d="M63.3336 3.30981V6.66662L60.0002 6.64316V3.30981H63.3336Z" fill="#FFAEC1"/>
<path d="M63.3336 -6.10352e-05V3.3098H60.0002V-6.10352e-05H63.3336Z" fill="#BC002D"/>
<path d="M59.9998 53.3098V56.6666L56.6665 56.6432V53.3098H59.9998Z" fill="#BC002D"/>
<path d="M59.9998 49.9765V53.3333L56.6665 53.3098V49.9765H59.9998Z" fill="#F46788"/>
<path d="M59.9998 46.6666V49.9765H56.6665V46.6666H59.9998Z" fill="#BC002D"/>
<path d="M59.9998 43.3333V46.6667H56.6665V43.3333H59.9998Z" fill="#FFAEC1"/>
<path d="M59.9998 39.9999V43.3333H56.6665V39.9999H59.9998Z" fill="#FFAEC1"/>
<path d="M59.9998 36.6431V39.9999L56.6665 39.9765V36.6431H59.9998Z" fill="#BC002D"/>
<path d="M59.9998 33.3333V36.6432H56.6665V33.3333H59.9998Z" fill="#FFAEC1"/>
<path d="M59.9998 29.9765V33.3333L56.6665 33.3098V29.9765H59.9998Z" fill="#BC002D"/>
<path d="M59.9998 26.6666V29.9765H56.6665V26.6666H59.9998Z" fill="#FFAEC1"/>
<path d="M59.9998 23.3333V26.6666H56.6665V23.3333H59.9998Z" fill="#BC002D"/>
<path d="M59.9998 19.9765V23.3333L56.6665 23.3098V19.9765H59.9998Z" fill="#FFAEC1"/>
<path d="M59.9998 16.6666V19.9765H56.6665V16.6666H59.9998Z" fill="#BC002D"/>
<path d="M59.9998 13.3098V16.6666L56.6665 16.6432V13.3098H59.9998Z" fill="#FFAEC1"/>
<path d="M59.9998 9.99994V13.3098H56.6665V9.99994H59.9998Z" fill="#BC002D"/>
<path d="M59.9998 6.66663V9.99997H56.6665V6.66663H59.9998Z" fill="#FFAEC1"/>
<path d="M59.9998 3.30981V6.66662L56.6665 6.64316V3.30981H59.9998Z" fill="#FFAEC1"/>
<path d="M59.9998 -6.10352e-05V3.3098H56.6665V-6.10352e-05H59.9998Z" fill="#BC002D"/>
<path d="M56.6668 53.3098V56.6666L53.3335 56.6432V53.3098H56.6668Z" fill="#BC002D"/>
<path d="M56.6668 49.9765V53.3333L53.3335 53.3098V49.9765H56.6668Z" fill="#F46788"/>
<path d="M56.6668 46.6666V49.9765H53.3335V46.6666H56.6668Z" fill="#BC002D"/>
<path d="M56.6668 43.3333V46.6667H53.3335V43.3333H56.6668Z" fill="#FFAEC1"/>
<path d="M56.6668 39.9999V43.3333H53.3335V39.9999H56.6668Z" fill="#FFAEC1"/>
<path d="M56.6668 36.6431V39.9999L53.3335 39.9765V36.6431H56.6668Z" fill="#BC002D"/>
<path d="M56.6668 33.3333V36.6432H53.3335V33.3333H56.6668Z" fill="#FFAEC1"/>
<path d="M56.6668 29.9765V33.3333L53.3335 33.3098V29.9765H56.6668Z" fill="#BC002D"/>
<path d="M56.6668 26.6666V29.9765H53.3335V26.6666H56.6668Z" fill="#FFAEC1"/>
<path d="M56.6668 23.3333V26.6666H53.3335V23.3333H56.6668Z" fill="#BC002D"/>
<path d="M56.6668 19.9765V23.3333L53.3335 23.3098V19.9765H56.6668Z" fill="#FFAEC1"/>
<path d="M56.6668 16.6666V19.9765H53.3335V16.6666H56.6668Z" fill="#BC002D"/>
<path d="M56.6668 13.3098V16.6666L53.3335 16.6432V13.3098H56.6668Z" fill="#FFAEC1"/>
<path d="M56.6668 9.99994V13.3098H53.3335V9.99994H56.6668Z" fill="#BC002D"/>
<path d="M56.6668 6.66663V9.99997H53.3335V6.66663H56.6668Z" fill="#FFAEC1"/>
<path d="M56.6668 3.30981V6.66662L53.3335 6.64316V3.30981H56.6668Z" fill="#FFAEC1"/>
<path d="M56.6668 -6.10352e-05V3.3098H53.3335V-6.10352e-05H56.6668Z" fill="#BC002D"/>
<path d="M53.3333 53.3098V56.6666L50 56.6432V53.3098H53.3333Z" fill="#BC002D"/>
<path d="M53.3333 49.9765V53.3333L50 53.3098V49.9765H53.3333Z" fill="#F46788"/>
<path d="M53.3333 46.6666V49.9765H50V46.6666H53.3333Z" fill="#BC002D"/>
<path d="M53.3333 43.3333V46.6667H50V43.3333H53.3333Z" fill="#FFAEC1"/>
<path d="M53.3333 39.9999V43.3333H50V39.9999H53.3333Z" fill="#FFAEC1"/>
<path d="M53.3333 36.6431V39.9999L50 39.9765V36.6431H53.3333Z" fill="#BC002D"/>
<path d="M53.3333 33.3333V36.6432H50V33.3333H53.3333Z" fill="#FFAEC1"/>
<path d="M53.3333 29.9765V33.3333L50 33.3098V29.9765H53.3333Z" fill="#BC002D"/>
<path d="M53.3333 26.6666V29.9765H50V26.6666H53.3333Z" fill="#FFAEC1"/>
<path d="M53.3333 23.3333V26.6666H50V23.3333H53.3333Z" fill="#BC002D"/>
<path d="M53.3333 19.9765V23.3333L50 23.3098V19.9765H53.3333Z" fill="#FFAEC1"/>
<path d="M53.3333 16.6666V19.9765H50V16.6666H53.3333Z" fill="#BC002D"/>
<path d="M53.3333 13.3098V16.6666L50 16.6432V13.3098H53.3333Z" fill="#FFAEC1"/>
<path d="M53.3333 9.99994V13.3098H50V9.99994H53.3333Z" fill="#BC002D"/>
<path d="M53.3333 6.66663V9.99997H50V6.66663H53.3333Z" fill="#FFAEC1"/>
<path d="M53.3333 3.30981V6.66662L50 6.64316V3.30981H53.3333Z" fill="#FFAEC1"/>
<path d="M53.3333 -6.10352e-05V3.3098H50V-6.10352e-05H53.3333Z" fill="#BC002D"/>
<path d="M49.9998 53.3098V56.6666L46.6665 56.6432V53.3098H49.9998Z" fill="#BC002D"/>
<path d="M49.9998 49.9765V53.3333L46.6665 53.3098V49.9765H49.9998Z" fill="#F46788"/>
<path d="M49.9998 46.6666V49.9765H46.6665V46.6666H49.9998Z" fill="#BC002D"/>
<path d="M49.9998 43.3333V46.6667H46.6665V43.3333H49.9998Z" fill="#FFAEC1"/>
<path d="M49.9998 39.9999V43.3333H46.6665V39.9999H49.9998Z" fill="#FFAEC1"/>
<path d="M49.9998 36.6431V39.9999L46.6665 39.9765V36.6431H49.9998Z" fill="#BC002D"/>
<path d="M49.9998 33.3333V36.6432H46.6665V33.3333H49.9998Z" fill="#FFAEC1"/>
<path d="M49.9998 29.9765V33.3333L46.6665 33.3098V29.9765H49.9998Z" fill="#BC002D"/>
<path d="M49.9998 26.6666V29.9765H46.6665V26.6666H49.9998Z" fill="#FFAEC1"/>
<path d="M49.9998 23.3333V26.6666H46.6665V23.3333H49.9998Z" fill="#BC002D"/>
<path d="M49.9998 19.9765V23.3333L46.6665 23.3098V19.9765H49.9998Z" fill="#FFAEC1"/>
<path d="M49.9998 16.6666V19.9765H46.6665V16.6666H49.9998Z" fill="#BC002D"/>
<path d="M49.9998 13.3098V16.6666L46.6665 16.6432V13.3098H49.9998Z" fill="#FFAEC1"/>
<path d="M49.9998 9.99994V13.3098H46.6665V9.99994H49.9998Z" fill="#BC002D"/>
<path d="M49.9998 6.66663V9.99997H46.6665V6.66663H49.9998Z" fill="#FFAEC1"/>
<path d="M49.9998 3.30981V6.66662L46.6665 6.64316V3.30981H49.9998Z" fill="#FFAEC1"/>
<path d="M49.9998 -6.10352e-05V3.3098H46.6665V-6.10352e-05H49.9998Z" fill="#BC002D"/>
<path d="M46.6668 53.3098V56.6666L43.3335 56.6432V53.3098H46.6668Z" fill="#BC002D"/>
<path d="M46.6668 49.9765V53.3333L43.3335 53.3098V49.9765H46.6668Z" fill="#F46788"/>
<path d="M46.6668 46.6666V49.9765H43.3335V46.6666H46.6668Z" fill="#BC002D"/>
<path d="M46.6668 43.3333V46.6667H43.3335V43.3333H46.6668Z" fill="#FFAEC1"/>
<path d="M46.6668 39.9999V43.3333H43.3335V39.9999H46.6668Z" fill="#FFAEC1"/>
<path d="M46.6668 36.6431V39.9999L43.3335 39.9765V36.6431H46.6668Z" fill="#FFAEC1"/>
<path d="M46.6668 33.3333V36.6432H43.3335V33.3333H46.6668Z" fill="#FFAEC1"/>
<path d="M46.6668 29.9765V33.3333L43.3335 33.3098V29.9765H46.6668Z" fill="#FFAEC1"/>
<path d="M46.6668 26.6666V29.9765H43.3335V26.6666H46.6668Z" fill="#FFAEC1"/>
<path d="M46.6668 23.3333V26.6666H43.3335V23.3333H46.6668Z" fill="#FFAEC1"/>
<path d="M46.6668 19.9765V23.3333L43.3335 23.3098V19.9765H46.6668Z" fill="#FFAEC1"/>
<path d="M46.6668 16.6666V19.9765H43.3335V16.6666H46.6668Z" fill="#FFAEC1"/>
<path d="M46.6668 13.3098V16.6666L43.3335 16.6432V13.3098H46.6668Z" fill="#FFAEC1"/>
<path d="M46.6668 9.99994V13.3098H43.3335V9.99994H46.6668Z" fill="#FFAEC1"/>
<path d="M46.6668 6.66663V9.99997H43.3335V6.66663H46.6668Z" fill="#FFAEC1"/>
<path d="M46.6668 3.30981V6.66662L43.3335 6.64316V3.30981H46.6668Z" fill="#FFAEC1"/>
<path d="M46.6668 -6.10352e-05V3.3098H43.3335V-6.10352e-05H46.6668Z" fill="#BC002D"/>
<path d="M43.3333 56.6666V60H40V56.6666H43.3333Z" fill="#BC002D"/>
<path d="M43.3333 53.3098V56.6666L40 56.6432V53.3098H43.3333Z" fill="#F46788"/>
<path d="M43.3333 49.9765V53.3333L40 53.3098V49.9765H43.3333Z" fill="#BC002D"/>
<path d="M43.3333 46.6666V49.9765H40V46.6666H43.3333Z" fill="#FFAEC1"/>
<path d="M43.3333 43.3333V46.6667H40V43.3333H43.3333Z" fill="#FFAEC1"/>
<path d="M43.3333 39.9999V43.3333H40V39.9999H43.3333Z" fill="#FFAEC1"/>
<path d="M43.3333 36.6431V39.9999L40 39.9765V36.6431H43.3333Z" fill="#FFAEC1"/>
<path d="M43.3333 33.3333V36.6432H40V33.3333H43.3333Z" fill="#FFAEC1"/>
<path d="M43.3333 29.9765V33.3333L40 33.3098V29.9765H43.3333Z" fill="#FFAEC1"/>
<path d="M43.3333 26.6666V29.9765H40V26.6666H43.3333Z" fill="#FFAEC1"/>
<path d="M43.3333 23.3333V26.6666H40V23.3333H43.3333Z" fill="#FFAEC1"/>
<path d="M43.3333 19.9765V23.3333L40 23.3098V19.9765H43.3333Z" fill="#FFAEC1"/>
<path d="M43.3333 16.6666V19.9765H40V16.6666H43.3333Z" fill="#FFAEC1"/>
<path d="M43.3333 13.3098V16.6666L40 16.6432V13.3098H43.3333Z" fill="#FFAEC1"/>
<path d="M43.3333 9.99994V13.3098H40V9.99994H43.3333Z" fill="#FFAEC1"/>
<path d="M43.3333 6.66663V9.99997H40V6.66663H43.3333Z" fill="#FFAEC1"/>
<path d="M43.3333 3.30981V6.66662L40 6.64316V3.30981H43.3333Z" fill="#BC002D"/>
<path d="M40.0003 56.6666V60H36.667V56.6666H40.0003Z" fill="#BC002D"/>
<path d="M40.0003 53.3098V56.6666L36.667 56.6432V53.3098H40.0003Z" fill="#BC002D"/>
<path d="M40.0003 49.9765V53.3333L36.667 53.3098V49.9765H40.0003Z" fill="#BC002D"/>
<path d="M40.0003 46.6666V49.9765H36.667V46.6666H40.0003Z" fill="#BC002D"/>
<path d="M40.0003 43.3333V46.6667H36.667V43.3333H40.0003Z" fill="#BC002D"/>
<path d="M40.0003 39.9999V43.3333H36.667V39.9999H40.0003Z" fill="#BC002D"/>
<path d="M40.0003 36.6431V39.9999L36.667 39.9765V36.6431H40.0003Z" fill="#BC002D"/>
<path d="M40.0003 33.3333V36.6432H36.667V33.3333H40.0003Z" fill="#BC002D"/>
<path d="M40.0003 29.9765V33.3333L36.667 33.3098V29.9765H40.0003Z" fill="#BC002D"/>
<path d="M40.0003 26.6666V29.9765H36.667V26.6666H40.0003Z" fill="#BC002D"/>
<path d="M40.0003 23.3333V26.6666H36.667V23.3333H40.0003Z" fill="#BC002D"/>
<path d="M40.0003 19.9765V23.3333L36.667 23.3098V19.9765H40.0003Z" fill="#BC002D"/>
<path d="M40.0003 16.6666V19.9765H36.667V16.6666H40.0003Z" fill="#BC002D"/>
<path d="M40.0003 13.3098V16.6666L36.667 16.6432V13.3098H40.0003Z" fill="#BC002D"/>
<path d="M40.0003 9.99994V13.3098H36.667V9.99994H40.0003Z" fill="#BC002D"/>
<path d="M40.0003 6.66663V9.99997H36.667V6.66663H40.0003Z" fill="#BC002D"/>
<path d="M36.6666 56.6666V60H33.3333V56.6666H36.6666Z" fill="#BC002D"/>
<path d="M36.6666 53.3098V56.6666L33.3333 56.6432V53.3098H36.6666Z" fill="#F46788"/>
<path d="M36.6666 49.9765V53.3333L33.3333 53.3098V49.9765H36.6666Z" fill="#BC002D"/>
<path d="M36.6666 46.6666V49.9765H33.3333V46.6666H36.6666Z" fill="#FFAEC1"/>
<path d="M36.6666 43.3333V46.6667H33.3333V43.3333H36.6666Z" fill="#FFAEC1"/>
<path d="M36.6666 39.9999V43.3333H33.3333V39.9999H36.6666Z" fill="#FFAEC1"/>
<path d="M36.6666 36.6431V39.9999L33.3333 39.9765V36.6431H36.6666Z" fill="#FFAEC1"/>
<path d="M36.6666 33.3333V36.6432H33.3333V33.3333H36.6666Z" fill="#FFAEC1"/>
<path d="M36.6666 29.9765V33.3333L33.3333 33.3098V29.9765H36.6666Z" fill="#FFAEC1"/>
<path d="M36.6666 26.6666V29.9765H33.3333V26.6666H36.6666Z" fill="#FFAEC1"/>
<path d="M36.6666 23.3333V26.6666H33.3333V23.3333H36.6666Z" fill="#FFAEC1"/>
<path d="M36.6666 19.9765V23.3333L33.3333 23.3098V19.9765H36.6666Z" fill="#FFAEC1"/>
<path d="M36.6666 16.6666V19.9765H33.3333V16.6666H36.6666Z" fill="#FFAEC1"/>
<path d="M36.6666 13.3098V16.6666L33.3333 16.6432V13.3098H36.6666Z" fill="#FFAEC1"/>
<path d="M36.6666 9.99994V13.3098H33.3333V9.99994H36.6666Z" fill="#FFAEC1"/>
<path d="M36.6666 6.66663V9.99997H33.3333V6.66663H36.6666Z" fill="#FFAEC1"/>
<path d="M36.6666 3.30981V6.66662L33.3333 6.64316V3.30981H36.6666Z" fill="#BC002D"/>
<path d="M33.3333 53.3098V56.6666L30 56.6432V53.3098H33.3333Z" fill="#BC002D"/>
<path d="M33.3333 49.9765V53.3333L30 53.3098V49.9765H33.3333Z" fill="#F46788"/>
<path d="M33.3333 46.6666V49.9765H30V46.6666H33.3333Z" fill="#BC002D"/>
<path d="M33.3333 43.3333V46.6667H30V43.3333H33.3333Z" fill="#FFAEC1"/>
<path d="M33.3333 39.9999V43.3333H30V39.9999H33.3333Z" fill="#FFAEC1"/>
<path d="M33.3333 36.6431V39.9999L30 39.9765V36.6431H33.3333Z" fill="#FFAEC1"/>
<path d="M33.3333 33.3333V36.6432H30V33.3333H33.3333Z" fill="#FFAEC1"/>
<path d="M33.3333 29.9765V33.3333L30 33.3098V29.9765H33.3333Z" fill="#FFAEC1"/>
<path d="M33.3333 26.6666V29.9765H30V26.6666H33.3333Z" fill="#FFAEC1"/>
<path d="M33.3333 23.3333V26.6666H30V23.3333H33.3333Z" fill="#FFAEC1"/>
<path d="M33.3333 19.9765V23.3333L30 23.3098V19.9765H33.3333Z" fill="#FFAEC1"/>
<path d="M33.3333 16.6666V19.9765H30V16.6666H33.3333Z" fill="#FFAEC1"/>
<path d="M33.3333 13.3098V16.6666L30 16.6432V13.3098H33.3333Z" fill="#FFAEC1"/>
<path d="M33.3333 9.99994V13.3098H30V9.99994H33.3333Z" fill="#FFAEC1"/>
<path d="M33.3333 6.66663V9.99997H30V6.66663H33.3333Z" fill="#FFAEC1"/>
<path d="M33.3333 3.30981V6.66662L30 6.64316V3.30981H33.3333Z" fill="#FFAEC1"/>
<path d="M33.3333 -6.10352e-05V3.3098H30V-6.10352e-05H33.3333Z" fill="#BC002D"/>
<path d="M29.9998 53.3098V56.6666L26.6665 56.6432V53.3098H29.9998Z" fill="#BC002D"/>
<path d="M29.9998 49.9765V53.3333L26.6665 53.3098V49.9765H29.9998Z" fill="#F46788"/>
<path d="M29.9998 46.6666V49.9765H26.6665V46.6666H29.9998Z" fill="#BC002D"/>
<path d="M29.9998 43.3333V46.6667H26.6665V43.3333H29.9998Z" fill="#FFAEC1"/>
<path d="M29.9998 39.9999V43.3333H26.6665V39.9999H29.9998Z" fill="#FFAEC1"/>
<path d="M29.9998 36.6431V39.9999L26.6665 39.9765V36.6431H29.9998Z" fill="#FFAEC1"/>
<path d="M29.9998 33.3333V36.6432H26.6665V33.3333H29.9998Z" fill="#FFAEC1"/>
<path d="M29.9998 29.9765V33.3333L26.6665 33.3098V29.9765H29.9998Z" fill="#BC002D"/>
<path d="M29.9998 26.6666V29.9765H26.6665V26.6666H29.9998Z" fill="#FFAEC1"/>
<path d="M29.9998 23.3333V26.6666H26.6665V23.3333H29.9998Z" fill="#BC002D"/>
<path d="M29.9998 19.9765V23.3333L26.6665 23.3098V19.9765H29.9998Z" fill="#FFAEC1"/>
<path d="M29.9998 16.6666V19.9765H26.6665V16.6666H29.9998Z" fill="#BC002D"/>
<path d="M29.9998 13.3098V16.6666L26.6665 16.6432V13.3098H29.9998Z" fill="#FFAEC1"/>
<path d="M29.9998 9.99994V13.3098H26.6665V9.99994H29.9998Z" fill="#FFAEC1"/>
<path d="M29.9998 6.66663V9.99997H26.6665V6.66663H29.9998Z" fill="#FFAEC1"/>
<path d="M29.9998 3.30981V6.66662L26.6665 6.64316V3.30981H29.9998Z" fill="#FFAEC1"/>
<path d="M29.9998 -6.10352e-05V3.3098H26.6665V-6.10352e-05H29.9998Z" fill="#BC002D"/>
<path d="M26.6668 53.3098V56.6666L23.3335 56.6432V53.3098H26.6668Z" fill="#BC002D"/>
<path d="M26.6668 49.9765V53.3333L23.3335 53.3098V49.9765H26.6668Z" fill="#F46788"/>
<path d="M26.6668 46.6666V49.9765H23.3335V46.6666H26.6668Z" fill="#BC002D"/>
<path d="M26.6668 43.3333V46.6667H23.3335V43.3333H26.6668Z" fill="#FFAEC1"/>
<path d="M26.6668 39.9999V43.3333H23.3335V39.9999H26.6668Z" fill="#FFAEC1"/>
<path d="M26.6668 36.6431V39.9999L23.3335 39.9765V36.6431H26.6668Z" fill="#FFAEC1"/>
<path d="M26.6668 33.3333V36.6432H23.3335V33.3333H26.6668Z" fill="#FFAEC1"/>
<path d="M26.6668 29.9765V33.3333L23.3335 33.3098V29.9765H26.6668Z" fill="#BC002D"/>
<path d="M26.6668 26.6666V29.9765H23.3335V26.6666H26.6668Z" fill="#FFAEC1"/>
<path d="M26.6668 23.3333V26.6666H23.3335V23.3333H26.6668Z" fill="#BC002D"/>
<path d="M26.6668 19.9765V23.3333L23.3335 23.3098V19.9765H26.6668Z" fill="#FFAEC1"/>
<path d="M26.6668 16.6666V19.9765H23.3335V16.6666H26.6668Z" fill="#BC002D"/>
<path d="M26.6668 13.3098V16.6666L23.3335 16.6432V13.3098H26.6668Z" fill="#FFAEC1"/>
<path d="M26.6668 9.99994V13.3098H23.3335V9.99994H26.6668Z" fill="#FFAEC1"/>
<path d="M26.6668 6.66663V9.99997H23.3335V6.66663H26.6668Z" fill="#FFAEC1"/>
<path d="M26.6668 3.30981V6.66662L23.3335 6.64316V3.30981H26.6668Z" fill="#FFAEC1"/>
<path d="M26.6668 -6.10352e-05V3.3098H23.3335V-6.10352e-05H26.6668Z" fill="#BC002D"/>
<path d="M23.3336 53.3098V56.6666L20.0002 56.6432V53.3098H23.3336Z" fill="#BC002D"/>
<path d="M23.3336 49.9765V53.3333L20.0002 53.3098V49.9765H23.3336Z" fill="#F46788"/>
<path d="M23.3336 46.6666V49.9765H20.0002V46.6666H23.3336Z" fill="#BC002D"/>
<path d="M23.3336 43.3333V46.6667H20.0002V43.3333H23.3336Z" fill="#FFAEC1"/>
<path d="M23.3336 39.9999V43.3333H20.0002V39.9999H23.3336Z" fill="#FFAEC1"/>
<path d="M23.3336 36.6431V39.9999L20.0002 39.9765V36.6431H23.3336Z" fill="#FFAEC1"/>
<path d="M23.3336 33.3333V36.6432H20.0002V33.3333H23.3336Z" fill="#FFAEC1"/>
<path d="M23.3336 29.9765V33.3333L20.0002 33.3098V29.9765H23.3336Z" fill="#BC002D"/>
<path d="M23.3336 26.6666V29.9765H20.0002V26.6666H23.3336Z" fill="#FFAEC1"/>
<path d="M23.3336 23.3333V26.6666H20.0002V23.3333H23.3336Z" fill="#BC002D"/>
<path d="M23.3336 19.9765V23.3333L20.0002 23.3098V19.9765H23.3336Z" fill="#FFAEC1"/>
<path d="M23.3336 16.6666V19.9765H20.0002V16.6666H23.3336Z" fill="#BC002D"/>
<path d="M23.3336 13.3098V16.6666L20.0002 16.6432V13.3098H23.3336Z" fill="#FFAEC1"/>
<path d="M23.3336 9.99994V13.3098H20.0002V9.99994H23.3336Z" fill="#FFAEC1"/>
<path d="M23.3336 6.66663V9.99997H20.0002V6.66663H23.3336Z" fill="#FFAEC1"/>
<path d="M23.3336 3.30981V6.66662L20.0002 6.64316V3.30981H23.3336Z" fill="#FFAEC1"/>
<path d="M23.3336 -6.10352e-05V3.3098H20.0002V-6.10352e-05H23.3336Z" fill="#BC002D"/>
<path d="M20.0001 53.3098V56.6666L16.6667 56.6432V53.3098H20.0001Z" fill="#BC002D"/>
<path d="M20.0001 49.9765V53.3333L16.6667 53.3098V49.9765H20.0001Z" fill="#F46788"/>
<path d="M20.0001 46.6666V49.9765H16.6667V46.6666H20.0001Z" fill="#BC002D"/>
<path d="M20.0001 43.3333V46.6667H16.6667V43.3333H20.0001Z" fill="#FFAEC1"/>
<path d="M20.0001 39.9999V43.3333H16.6667V39.9999H20.0001Z" fill="#FFAEC1"/>
<path d="M20.0001 36.6431V39.9999L16.6667 39.9765V36.6431H20.0001Z" fill="#FFAEC1"/>
<path d="M20.0001 33.3333V36.6432H16.6667V33.3333H20.0001Z" fill="#FFAEC1"/>
<path d="M20.0001 29.9765V33.3333L16.6667 33.3098V29.9765H20.0001Z" fill="#BC002D"/>
<path d="M20.0001 26.6666V29.9765H16.6667V26.6666H20.0001Z" fill="#FFAEC1"/>
<path d="M20.0001 23.3333V26.6666H16.6667V23.3333H20.0001Z" fill="#BC002D"/>
<path d="M20.0001 19.9765V23.3333L16.6667 23.3098V19.9765H20.0001Z" fill="#FFAEC1"/>
<path d="M20.0001 16.6666V19.9765H16.6667V16.6666H20.0001Z" fill="#BC002D"/>
<path d="M20.0001 13.3098V16.6666L16.6667 16.6432V13.3098H20.0001Z" fill="#FFAEC1"/>
<path d="M20.0001 9.99994V13.3098H16.6667V9.99994H20.0001Z" fill="#BC002D"/>
<path d="M20.0001 6.66663V9.99997H16.6667V6.66663H20.0001Z" fill="#FFAEC1"/>
<path d="M20.0001 3.30981V6.66662L16.6667 6.64316V3.30981H20.0001Z" fill="#FFAEC1"/>
<path d="M20.0001 -6.10352e-05V3.3098H16.6667V-6.10352e-05H20.0001Z" fill="#BC002D"/>
<path d="M16.6668 53.3098V56.6666L13.3335 56.6432V53.3098H16.6668Z" fill="#BC002D"/>
<path d="M16.6668 49.9765V53.3333L13.3335 53.3098V49.9765H16.6668Z" fill="#F46788"/>
<path d="M16.6668 46.6666V49.9765H13.3335V46.6666H16.6668Z" fill="#BC002D"/>
<path d="M16.6668 43.3333V46.6667H13.3335V43.3333H16.6668Z" fill="#FFAEC1"/>
<path d="M16.6668 39.9999V43.3333H13.3335V39.9999H16.6668Z" fill="#FFAEC1"/>
<path d="M16.6668 36.6431V39.9999L13.3335 39.9765V36.6431H16.6668Z" fill="#BC002D"/>
<path d="M16.6668 33.3333V36.6432H13.3335V33.3333H16.6668Z" fill="#FFAEC1"/>
<path d="M16.6668 29.9765V33.3333L13.3335 33.3098V29.9765H16.6668Z" fill="#BC002D"/>
<path d="M16.6668 26.6666V29.9765H13.3335V26.6666H16.6668Z" fill="#FFAEC1"/>
<path d="M16.6668 23.3333V26.6666H13.3335V23.3333H16.6668Z" fill="#BC002D"/>
<path d="M16.6668 19.9765V23.3333L13.3335 23.3098V19.9765H16.6668Z" fill="#FFAEC1"/>
<path d="M16.6668 16.6666V19.9765H13.3335V16.6666H16.6668Z" fill="#BC002D"/>
<path d="M16.6668 13.3098V16.6666L13.3335 16.6432V13.3098H16.6668Z" fill="#FFAEC1"/>
<path d="M16.6668 9.99994V13.3098H13.3335V9.99994H16.6668Z" fill="#BC002D"/>
<path d="M16.6668 6.66663V9.99997H13.3335V6.66663H16.6668Z" fill="#FFAEC1"/>
<path d="M16.6668 3.30981V6.66662L13.3335 6.64316V3.30981H16.6668Z" fill="#FFAEC1"/>
<path d="M16.6668 -6.10352e-05V3.3098H13.3335V-6.10352e-05H16.6668Z" fill="#BC002D"/>
<path d="M13.3331 53.3098V56.6666L9.99976 56.6432V53.3098H13.3331Z" fill="#BC002D"/>
<path d="M13.3331 49.9765V53.3333L9.99976 53.3098V49.9765H13.3331Z" fill="#F46788"/>
<path d="M13.3331 46.6666V49.9765H9.99976V46.6666H13.3331Z" fill="#BC002D"/>
<path d="M13.3331 43.3333V46.6667H9.99976V43.3333H13.3331Z" fill="#FFAEC1"/>
<path d="M13.3331 39.9999V43.3333H9.99976V39.9999H13.3331Z" fill="#FFAEC1"/>
<path d="M13.3331 36.6431V39.9999L9.99976 39.9765V36.6431H13.3331Z" fill="#BC002D"/>
<path d="M13.3331 33.3333V36.6432H9.99976V33.3333H13.3331Z" fill="#FFAEC1"/>
<path d="M13.3331 29.9765V33.3333L9.99976 33.3098V29.9765H13.3331Z" fill="#BC002D"/>
<path d="M13.3331 26.6666V29.9765H9.99976V26.6666H13.3331Z" fill="#FFAEC1"/>
<path d="M13.3331 23.3333V26.6666H9.99976V23.3333H13.3331Z" fill="#BC002D"/>
<path d="M13.3331 19.9765V23.3333L9.99976 23.3098V19.9765H13.3331Z" fill="#FFAEC1"/>
<path d="M13.3331 16.6666V19.9765H9.99976V16.6666H13.3331Z" fill="#BC002D"/>
<path d="M13.3331 13.3098V16.6666L9.99976 16.6432V13.3098H13.3331Z" fill="#FFAEC1"/>
<path d="M13.3331 9.99994V13.3098H9.99976V9.99994H13.3331Z" fill="#BC002D"/>
<path d="M13.3331 6.66663V9.99997H9.99976V6.66663H13.3331Z" fill="#FFAEC1"/>
<path d="M13.3331 3.30981V6.66662L9.99976 6.64316V3.30981H13.3331Z" fill="#FFAEC1"/>
<path d="M13.3331 -6.10352e-05V3.3098H9.99976V-6.10352e-05H13.3331Z" fill="#BC002D"/>
<path d="M10.0001 53.3098V56.6666L6.66675 56.6432V53.3098H10.0001Z" fill="#BC002D"/>
<path d="M10.0001 49.9765V53.3333L6.66675 53.3098V49.9765H10.0001Z" fill="#F46788"/>
<path d="M10.0001 46.6666V49.9765H6.66675V46.6666H10.0001Z" fill="#BC002D"/>
<path d="M10.0001 43.3333V46.6667H6.66675V43.3333H10.0001Z" fill="#FFAEC1"/>
<path d="M10.0001 39.9999V43.3333H6.66675V39.9999H10.0001Z" fill="#FFAEC1"/>
<path d="M10.0001 36.6431V39.9999L6.66675 39.9765V36.6431H10.0001Z" fill="#BC002D"/>
<path d="M10.0001 33.3333V36.6432H6.66675V33.3333H10.0001Z" fill="#FFAEC1"/>
<path d="M10.0001 29.9765V33.3333L6.66675 33.3098V29.9765H10.0001Z" fill="#BC002D"/>
<path d="M10.0001 26.6666V29.9765H6.66675V26.6666H10.0001Z" fill="#FFAEC1"/>
<path d="M10.0001 23.3333V26.6666H6.66675V23.3333H10.0001Z" fill="#BC002D"/>
<path d="M10.0001 19.9765V23.3333L6.66675 23.3098V19.9765H10.0001Z" fill="#FFAEC1"/>
<path d="M10.0001 16.6666V19.9765H6.66675V16.6666H10.0001Z" fill="#BC002D"/>
<path d="M10.0001 13.3098V16.6666L6.66675 16.6432V13.3098H10.0001Z" fill="#FFAEC1"/>
<path d="M10.0001 9.99994V13.3098H6.66675V9.99994H10.0001Z" fill="#BC002D"/>
<path d="M10.0001 6.66663V9.99997H6.66675V6.66663H10.0001Z" fill="#FFAEC1"/>
<path d="M10.0001 3.30981V6.66662L6.66675 6.64316V3.30981H10.0001Z" fill="#FFAEC1"/>
<path d="M10.0001 -6.10352e-05V3.3098H6.66675V-6.10352e-05H10.0001Z" fill="#BC002D"/>
<path d="M6.66683 56.6666V60H3.3335V56.6666H6.66683Z" fill="#BC002D"/>
<path d="M6.66683 53.3098V56.6666L3.3335 56.6432V53.3098H6.66683Z" fill="#F46788"/>
<path d="M6.66683 49.9765V53.3333L3.3335 53.3098V49.9765H6.66683Z" fill="#BC002D"/>
<path d="M6.66683 46.6666V49.9765H3.3335V46.6666H6.66683Z" fill="#FFAEC1"/>
<path d="M6.66683 43.3333V46.6667H3.3335V43.3333H6.66683Z" fill="#FFAEC1"/>
<path d="M6.66683 39.9999V43.3333H3.3335V39.9999H6.66683Z" fill="#FFAEC1"/>
<path d="M6.66683 36.6431V39.9999L3.3335 39.9765V36.6431H6.66683Z" fill="#FFAEC1"/>
<path d="M6.66683 33.3333V36.6432H3.3335V33.3333H6.66683Z" fill="#FFAEC1"/>
<path d="M6.66683 29.9765V33.3333L3.3335 33.3098V29.9765H6.66683Z" fill="#FFAEC1"/>
<path d="M6.66683 26.6666V29.9765H3.3335V26.6666H6.66683Z" fill="#FFAEC1"/>
<path d="M6.66683 23.3333V26.6666H3.3335V23.3333H6.66683Z" fill="#FFAEC1"/>
<path d="M6.66683 19.9765V23.3333L3.3335 23.3098V19.9765H6.66683Z" fill="#FFAEC1"/>
<path d="M6.66683 16.6666V19.9765H3.3335V16.6666H6.66683Z" fill="#FFAEC1"/>
<path d="M6.66683 13.3098V16.6666L3.3335 16.6432V13.3098H6.66683Z" fill="#FFAEC1"/>
<path d="M6.66683 9.99994V13.3098H3.3335V9.99994H6.66683Z" fill="#FFAEC1"/>
<path d="M6.66683 6.66663V9.99997H3.3335V6.66663H6.66683Z" fill="#FFAEC1"/>
<path d="M6.66683 3.30981V6.66662L3.3335 6.64316V3.30981H6.66683Z" fill="#FFAEC1"/>
<path d="M6.66683 -6.10352e-05V3.3098H3.3335V-6.10352e-05H6.66683Z" fill="#BC002D"/>
<path d="M3.33334 56.6666V60H0V56.6666H3.33334Z" fill="#BC002D"/>
<path d="M3.33334 53.3098V56.6666L0 56.6432V53.3098H3.33334Z" fill="#BC002D"/>
<path d="M3.33334 49.9765V53.3333L0 53.3098V49.9765H3.33334Z" fill="#BC002D"/>
<path d="M3.33334 46.6666V49.9765H0V46.6666H3.33334Z" fill="#BC002D"/>
<path d="M3.33334 43.3333V46.6667H0V43.3333H3.33334Z" fill="#BC002D"/>
<path d="M3.33334 39.9999V43.3333H0V39.9999H3.33334Z" fill="#BC002D"/>
<path d="M3.33334 36.6431V39.9999L0 39.9765V36.6431H3.33334Z" fill="#BC002D"/>
<path d="M3.33334 33.3333V36.6432H0V33.3333H3.33334Z" fill="#BC002D"/>
<path d="M3.33334 29.9765V33.3333L0 33.3098V29.9765H3.33334Z" fill="#BC002D"/>
<path d="M3.33334 26.6666V29.9765H0V26.6666H3.33334Z" fill="#BC002D"/>
<path d="M3.33334 23.3333V26.6666H0V23.3333H3.33334Z" fill="#BC002D"/>
<path d="M3.33334 19.9765V23.3333L0 23.3098V19.9765H3.33334Z" fill="#BC002D"/>
<path d="M3.33334 16.6666V19.9765H0V16.6666H3.33334Z" fill="#BC002D"/>
<path d="M3.33334 13.3098V16.6666L0 16.6432V13.3098H3.33334Z" fill="#BC002D"/>
<path d="M3.33334 9.99994V13.3098H0V9.99994H3.33334Z" fill="#BC002D"/>
<path d="M3.33334 6.66663V9.99997H0V6.66663H3.33334Z" fill="#BC002D"/>
<path d="M3.33334 3.30981V6.66662L0 6.64316V3.30981H3.33334Z" fill="#BC002D"/>
<path d="M48.019 19.2796V15.9416H52.3635L48.019 19.2796Z" fill="#F3C7D1"/>
<path d="M56.877 19.2796L52.5325 15.9416H56.877V19.2796Z" fill="#F46788"/>
<path d="M52.5325 7.07522H48.019V2.56177H52.5325V7.07522Z" fill="#F3C7D1"/>
<path d="M57.0459 7.07522H52.5325V2.56177H57.0459V7.07522Z" fill="#F46788"/>
<path d="M52.5325 11.5884H48.019V7.07495H52.5325V11.5884Z" fill="#F3C7D1"/>
<path d="M57.0459 11.5884H52.5325V7.07495H57.0459V11.5884Z" fill="#F46788"/>
<path d="M52.5325 16.0779H48.019V11.5886H52.5325V16.0779Z" fill="#F3C7D1"/>
<path d="M57.0459 16.0779H52.5325V11.5886H57.0459V16.0779Z" fill="#F46788"/>
<path d="M48.0193 2.96472V16.4601L46.0955 16.3657V2.96472H48.0193Z" fill="#BC002D"/>
<path d="M58.7239 2.56177V18.0916L56.8 17.983V2.56177H58.7239Z" fill="#BC002D"/>
<path d="M48.0193 9.61969V11.5435L46.0955 11.5301V9.61969H48.0193Z" fill="#BC002D"/>
<path d="M48.0193 6.29761V8.22142L46.0955 8.20797V6.29761H48.0193Z" fill="#BC002D"/>
<path d="M48.0193 12.953V14.8768L46.0955 14.8634V12.953H48.0193Z" fill="#BC002D"/>
<path d="M48.0193 16.2981V18.2219L46.0955 18.2085V16.2981H48.0193Z" fill="#BC002D"/>
<path d="M49.1992 18.0913V20.0151L47.2754 20.0017V18.0913H49.1992Z" fill="#BC002D"/>
<path d="M57.5005 18.0913V20.0151L55.5767 20.0017V18.0913H57.5005Z" fill="#BC002D"/>
<path d="M54.1998 15.3723V18.7291L50.8665 18.7057V15.3723H54.1998Z" fill="#BC002D"/>
<path d="M52.5326 16.6588V20.0156L49.1992 19.9922V16.6588H52.5326Z" fill="#BC002D"/>
<path d="M55.8658 16.6588V20.0156L52.5325 19.9922V16.6588H55.8658Z" fill="#BC002D"/>
</svg>
