<svg width="20" height="18" viewBox="0 0 20 18" fill="none" xmlns="http://www.w3.org/2000/svg">
<path d="M19.3548 1.65305V1.0408H18.7097V0.428558H0V16.3469H0.645161V16.9592H1.29032V17.5714H19.3548V16.9592H20V1.65305H19.3548ZM0.645161 1.0408H18.0645V3.48978H0.645161V1.0408ZM16.129 10.8367V8.99999H18.0645V10.8367H16.129ZM16.129 8.38774V6.55101H18.0645V8.38774H16.129ZM16.129 5.93876V4.10203H18.0645V5.93876H16.129ZM13.5484 15.1224V11.449H17.4194V12.0612H16.7742V12.6735H16.129V13.2857H15.4839V13.8979H14.8387V14.5102H14.1935V15.1224H13.5484ZM13.5484 10.8367V8.99999H15.4839V10.8367H13.5484ZM13.5484 8.38774V6.55101H15.4839V8.38774H13.5484ZM13.5484 5.93876V4.10203H15.4839V5.93876H13.5484ZM10.9677 13.2857V11.449H12.9032V13.2857H10.9677ZM12.9032 13.8979V15.7347H10.9677V13.8979H12.9032ZM10.9677 10.8367V8.99999H12.9032V10.8367H10.9677ZM10.9677 8.38774V6.55101H12.9032V8.38774H10.9677ZM10.9677 5.93876V4.10203H12.9032V5.93876H10.9677ZM8.3871 13.2857V11.449H10.3226V13.2857H8.3871ZM10.3226 13.8979V15.7347H8.3871V13.8979H10.3226ZM8.3871 10.8367V8.99999H10.3226V10.8367H8.3871ZM8.3871 8.38774V6.55101H10.3226V8.38774H8.3871ZM8.3871 5.93876V4.10203H10.3226V5.93876H8.3871ZM5.80645 13.2857V11.449H7.74194V13.2857H5.80645ZM7.74194 13.8979V15.7347H5.80645V13.8979H7.74194ZM5.80645 10.8367V8.99999H7.74194V10.8367H5.80645ZM5.80645 8.38774V6.55101H7.74194V8.38774H5.80645ZM5.80645 5.93876V4.10203H7.74194V5.93876H5.80645ZM3.22581 13.2857V11.449H5.16129V13.2857H3.22581ZM5.16129 13.8979V15.7347H3.22581V13.8979H5.16129ZM3.22581 10.8367V8.99999H5.16129V10.8367H3.22581ZM3.22581 8.38774V6.55101H5.16129V8.38774H3.22581ZM3.22581 5.93876V4.10203H5.16129V5.93876H3.22581ZM0.645161 4.10203H2.58065V5.93876H0.645161V4.10203ZM0.645161 6.55101H2.58065V8.38774H0.645161V6.55101ZM0.645161 8.99999H2.58065V10.8367H0.645161V8.99999ZM0.645161 11.449H2.58065V13.2857H0.645161V11.449ZM0.645161 13.8979H2.58065V15.7347H0.645161V13.8979ZM1.29032 16.9592V16.3469H13.5484V15.7347H14.1935V15.1224H14.8387V14.5102H15.4839V13.8979H16.129V13.2857H16.7742V12.6735H17.4194V12.0612H18.0645V11.449H18.7097V1.65305H19.3548V16.9592H1.29032Z" fill="rgba(188, 0, 45, 1)"/>
</svg>
