<svg width="60" height="60" viewBox="0 0 60 60" fill="none" xmlns="http://www.w3.org/2000/svg">
<path d="M20 55.7143H15V60H20V55.7143Z" fill="#BC002D"/>
<path d="M25.0002 55.7143H20.0002V60H25.0002V55.7143Z" fill="#BC002D"/>
<path d="M29.9998 55.7143H24.9998V60H29.9998V55.7143Z" fill="#BC002D"/>
<path d="M35 55.7143H30V60H35V55.7143Z" fill="#BC002D"/>
<path d="M14.9998 51.4286H9.99976V55.7143H14.9998V51.4286Z" fill="#BC002D"/>
<path d="M14.9998 47.1429H9.99976V51.4286H14.9998V47.1429Z" fill="#BC002D"/>
<path d="M14.9998 42.8571H9.99976V47.1428H14.9998V42.8571Z" fill="#BC002D"/>
<path d="M14.9998 38.5714H9.99976V42.8571H14.9998V38.5714Z" fill="#BC002D"/>
<path d="M40.0002 51.4286H35.0002V55.7143H40.0002V51.4286Z" fill="#BC002D"/>
<path d="M40.0002 47.1429H35.0002V51.4286H40.0002V47.1429Z" fill="#BC002D"/>
<path d="M40.0002 42.8571H35.0002V47.1428H40.0002V42.8571Z" fill="#BC002D"/>
<path d="M40.0002 38.5714H35.0002V42.8571H40.0002V38.5714Z" fill="#BC002D"/>
<path d="M10.0002 34.2857H5.00024V38.5714H10.0002V34.2857Z" fill="#BC002D"/>
<path d="M10.0002 30H5.00024V34.2857H10.0002V30Z" fill="#BC002D"/>
<path d="M10.0002 25.7143H5.00024V30H10.0002V25.7143Z" fill="#BC002D"/>
<path d="M10.0002 21.4286H5.00024V25.7143H10.0002V21.4286Z" fill="#BC002D"/>
<path d="M44.9998 34.2857H39.9998V38.5714H44.9998V34.2857Z" fill="#BC002D"/>
<path d="M44.9998 30H39.9998V34.2857H44.9998V30Z" fill="#BC002D"/>
<path d="M44.9998 25.7143H39.9998V30H44.9998V25.7143Z" fill="#BC002D"/>
<path d="M44.9998 21.4286H39.9998V25.7143H44.9998V21.4286Z" fill="#BC002D"/>
<path d="M5 17.1428H0V21.4285H5V17.1428Z" fill="#BC002D"/>
<path d="M5 12.8571H0V17.1428H5V12.8571Z" fill="#BC002D"/>
<path d="M10.0002 12.8571H5.00024V17.1428H10.0002V12.8571Z" fill="#BC002D"/>
<path d="M14.9998 12.8571H9.99976V17.1428H14.9998V12.8571Z" fill="#BC002D"/>
<path d="M20 12.8571H15V17.1428H20V12.8571Z" fill="#BC002D"/>
<path d="M25.0002 12.8571H20.0002V17.1428H25.0002V12.8571Z" fill="#BC002D"/>
<path d="M29.9998 12.8571H24.9998V17.1428H29.9998V12.8571Z" fill="#BC002D"/>
<path d="M35 12.8571H30V17.1428H35V12.8571Z" fill="#BC002D"/>
<path d="M40.0002 12.8571H35.0002V17.1428H40.0002V12.8571Z" fill="#BC002D"/>
<path d="M44.9998 12.8571H39.9998V17.1428H44.9998V12.8571Z" fill="#BC002D"/>
<path d="M50 12.8571H45V17.1428H50V12.8571Z" fill="#BC002D"/>
<path d="M50 17.1428H45V21.4285H50V17.1428Z" fill="#BC002D"/>
<path d="M40.0002 25.7143H35.0002V30H40.0002V25.7143Z" fill="#FFCACA"/>
<path d="M35 25.7143H30V30H35V25.7143Z" fill="#FFCACA"/>
<path d="M29.9998 25.7143H24.9998V30H29.9998V25.7143Z" fill="#FFAEC1"/>
<path d="M25.0002 25.7143H20.0002V30H25.0002V25.7143Z" fill="#FFCACA"/>
<path d="M20 25.7143H15V30H20V25.7143Z" fill="#FFCACA"/>
<path d="M14.9998 25.7143H9.99976V30H14.9998V25.7143Z" fill="#FFCACA"/>
<path d="M14.9998 30H9.99976V34.2857H14.9998V30Z" fill="#FFCACA"/>
<path d="M14.9998 34.2857H9.99976V38.5714H14.9998V34.2857Z" fill="#FFCACA"/>
<path d="M20 34.2857H15V38.5714H20V34.2857Z" fill="#FFCACA"/>
<path d="M25.0002 34.2857H20.0002V38.5714H25.0002V34.2857Z" fill="#FFCACA"/>
<path d="M29.9998 34.2857H24.9998V38.5714H29.9998V34.2857Z" fill="#FFCACA"/>
<path d="M35 38.5714H30V42.8571H35V38.5714Z" fill="#FFCACA"/>
<path d="M40.0002 34.2857H35.0002V38.5714H40.0002V34.2857Z" fill="#FFCACA"/>
<path d="M35 34.2857H30V38.5714H35V34.2857Z" fill="#FFAEC1"/>
<path d="M35 30H30V34.2857H35V30Z" fill="#FFCACA"/>
<path d="M40.0002 30H35.0002V34.2857H40.0002V30Z" fill="#FFCACA"/>
<path d="M29.9998 30H24.9998V34.2857H29.9998V30Z" fill="#FFCACA"/>
<path d="M25.0002 30H20.0002V34.2857H25.0002V30Z" fill="#FFCACA"/>
<path d="M20 30H15V34.2857H20V30Z" fill="#FFAEC1"/>
<path d="M20 38.5714H15V42.8571H20V38.5714Z" fill="#FFCACA"/>
<path d="M20 42.8571H15V47.1428H20V42.8571Z" fill="#FFCACA"/>
<path d="M20 47.1429H15V51.4286H20V47.1429Z" fill="#FFAEC1"/>
<path d="M20 51.4286H15V55.7143H20V51.4286Z" fill="#BC002D"/>
<path d="M25.0002 51.4286H20.0002V55.7143H25.0002V51.4286Z" fill="#FFCACA"/>
<path d="M29.9998 51.4286H24.9998V55.7143H29.9998V51.4286Z" fill="#FFAEC1"/>
<path d="M35 51.4286H30V55.7143H35V51.4286Z" fill="#BC002D"/>
<path d="M35 47.1429H30V51.4286H35V47.1429Z" fill="#FFCACA"/>
<path d="M35 42.8571H30V47.1428H35V42.8571Z" fill="#FFAEC1"/>
<path d="M29.9998 42.8571H24.9998V47.1428H29.9998V42.8571Z" fill="#FFCACA"/>
<path d="M25.0002 42.8571H20.0002V47.1428H25.0002V42.8571Z" fill="#FFCACA"/>
<path d="M25.0002 38.5714H20.0002V42.8571H25.0002V38.5714Z" fill="#FFAEC1"/>
<path d="M29.9998 38.5714H24.9998V42.8571H29.9998V38.5714Z" fill="#FFCACA"/>
<path d="M29.9998 47.1429H24.9998V51.4286H29.9998V47.1429Z" fill="#FFCACA"/>
<path d="M25.0002 47.1429H20.0002V51.4286H25.0002V47.1429Z" fill="#FFCACA"/>
<path d="M40.0002 8.57141H35.0002V12.8571H40.0002V8.57141Z" fill="#BC002D"/>
<path d="M40.0002 4.28571H35.0002V8.57142H40.0002V4.28571Z" fill="#BC002D"/>
<path d="M44.9998 8.57141H39.9998V12.8571H44.9998V8.57141Z" fill="#BC002D"/>
<path d="M44.9998 4.28571H39.9998V8.57142H44.9998V4.28571Z" fill="#BC002D"/>
<path d="M50 4.28571H45V8.57142H50V4.28571Z" fill="#BC002D"/>
<path d="M55.0002 4.28571H50.0002V8.57142H55.0002V4.28571Z" fill="#BC002D"/>
<path d="M55.0002 8.57141H50.0002V12.8571H55.0002V8.57141Z" fill="#BC002D"/>
<path d="M50 8.57141H45V12.8571H50V8.57141Z" fill="#BC002D"/>
<path d="M55.0002 12.8571H50.0002V17.1428H55.0002V12.8571Z" fill="#BC002D"/>
<path d="M44.9998 0H39.9998V4.28571H44.9998V0Z" fill="#BC002D"/>
<path d="M50 0H45V4.28571H50V0Z" fill="#BC002D"/>
<path d="M55.0002 0H50.0002V4.28571H55.0002V0Z" fill="#BC002D"/>
<path d="M59.9998 4.28571H54.9998V8.57142H59.9998V4.28571Z" fill="#BC002D"/>
<path d="M59.9998 8.57141H54.9998V12.8571H59.9998V8.57141Z" fill="#BC002D"/>
<path d="M59.9998 12.8571H54.9998V17.1428H59.9998V12.8571Z" fill="#BC002D"/>
<path d="M55.0002 17.1428H50.0002V21.4285H55.0002V17.1428Z" fill="#BC002D"/>
</svg>
