<svg width="60" height="60" viewBox="0 0 60 60" fill="none" xmlns="http://www.w3.org/2000/svg">
<path d="M21.4285 55.7143H17.1428V60H21.4285V55.7143Z" fill="#0064D4"/>
<path d="M25.7142 55.7143H21.4285V60H25.7142V55.7143Z" fill="#0064D4"/>
<path d="M30.0001 55.7143H25.7144V60H30.0001V55.7143Z" fill="#0064D4"/>
<path d="M34.2857 55.7143H30V60H34.2857V55.7143Z" fill="#0064D4"/>
<path d="M38.5714 55.7143H34.2856V60H38.5714V55.7143Z" fill="#0064D4"/>
<path d="M42.8572 55.7143H38.5715V60H42.8572V55.7143Z" fill="#0064D4"/>
<path d="M47.1429 51.4286H42.8572V55.7143H47.1429V51.4286Z" fill="#0064D4"/>
<path d="M51.4285 51.4286H47.1428V55.7143H51.4285V51.4286Z" fill="#0064D4"/>
<path d="M17.1429 51.4286H12.8572V55.7143H17.1429V51.4286Z" fill="#0064D4"/>
<path d="M12.8572 51.4286H8.57153V55.7143H12.8572V51.4286Z" fill="#0064D4"/>
<path d="M8.57136 47.1429H4.28564V51.4286H8.57136V47.1429Z" fill="#0064D4"/>
<path d="M55.7142 47.1429H51.4285V51.4286H55.7142V47.1429Z" fill="#0064D4"/>
<path d="M4.28571 42.8571H0V47.1429H4.28571V42.8571Z" fill="#0064D4"/>
<path d="M4.28571 38.5714H0V42.8572H4.28571V38.5714Z" fill="#0064D4"/>
<path d="M60.0001 42.8571H55.7144V47.1429H60.0001V42.8571Z" fill="#0064D4"/>
<path d="M60.0001 38.5714H55.7144V42.8572H60.0001V38.5714Z" fill="#0064D4"/>
<path d="M55.7142 34.2857H51.4285V38.5714H55.7142V34.2857Z" fill="#0064D4"/>
<path d="M60.0001 34.2857H55.7144V38.5714H60.0001V34.2857Z" fill="#0064D4"/>
<path d="M4.28571 34.2857H0V38.5714H4.28571V34.2857Z" fill="#0064D4"/>
<path d="M8.57136 34.2857H4.28564V38.5714H8.57136V34.2857Z" fill="#0064D4"/>
<path d="M12.8572 34.2857H8.57153V38.5714H12.8572V34.2857Z" fill="#0064D4"/>
<path d="M17.1429 34.2857H12.8572V38.5714H17.1429V34.2857Z" fill="#0064D4"/>
<path d="M21.4285 34.2857H17.1428V38.5714H21.4285V34.2857Z" fill="#0064D4"/>
<path d="M25.7142 34.2857H21.4285V38.5714H25.7142V34.2857Z" fill="#0064D4"/>
<path d="M30.0001 34.2857H25.7144V38.5714H30.0001V34.2857Z" fill="#0064D4"/>
<path d="M34.2857 34.2857H30V38.5714H34.2857V34.2857Z" fill="#0064D4"/>
<path d="M38.5714 34.2857H34.2856V38.5714H38.5714V34.2857Z" fill="#0064D4"/>
<path d="M42.8572 34.2857H38.5715V38.5714H42.8572V34.2857Z" fill="#0064D4"/>
<path d="M47.1429 34.2857H42.8572V38.5714H47.1429V34.2857Z" fill="#0064D4"/>
<path d="M51.4285 34.2857H47.1428V38.5714H51.4285V34.2857Z" fill="#0064D4"/>
<path d="M4.28571 30H0V34.2857H4.28571V30Z" fill="#0064D4"/>
<path d="M60.0001 30H55.7144V34.2857H60.0001V30Z" fill="#0064D4"/>
<path d="M8.57136 25.7143H4.28564V30H8.57136V25.7143Z" fill="#0064D4"/>
<path d="M8.57136 21.4286H4.28564V25.7143H8.57136V21.4286Z" fill="#0064D4"/>
<path d="M12.8572 17.1429H8.57153V21.4286H12.8572V17.1429Z" fill="#0064D4"/>
<path d="M17.1429 12.8571H12.8572V17.1429H17.1429V12.8571Z" fill="#0064D4"/>
<path d="M21.4285 8.57144H17.1428V12.8572H21.4285V8.57144Z" fill="#0064D4"/>
<path d="M25.7142 8.57144H21.4285V12.8572H25.7142V8.57144Z" fill="#0064D4"/>
<path d="M55.7142 25.7143H51.4285V30H55.7142V25.7143Z" fill="#0064D4"/>
<path d="M51.4285 21.4286H47.1428V25.7143H51.4285V21.4286Z" fill="#0064D4"/>
<path d="M51.4285 17.1429H47.1428V21.4286H51.4285V17.1429Z" fill="#0064D4"/>
<path d="M47.1429 17.1429H42.8572V21.4286H47.1429V17.1429Z" fill="#6D9FD8"/>
<path d="M38.5714 8.57144H34.2856V12.8572H38.5714V8.57144Z" fill="#0064D4"/>
<path d="M34.2857 8.57144H30V12.8572H34.2857V8.57144Z" fill="#0064D4"/>
<path d="M30.0001 8.57144H25.7144V12.8572H30.0001V8.57144Z" fill="#0064D4"/>
<path d="M47.1429 12.8571H42.8572V17.1429H47.1429V12.8571Z" fill="#0064D4"/>
<path d="M47.1429 8.57144H42.8572V12.8572H47.1429V8.57144Z" fill="#6D9FD8"/>
<path d="M51.4285 8.57144H47.1428V12.8572H51.4285V8.57144Z" fill="#0064D4"/>
<path d="M51.4285 4.28571H47.1428V8.57142H51.4285V4.28571Z" fill="#6D9FD8"/>
<path d="M55.7142 4.28571H51.4285V8.57142H55.7142V4.28571Z" fill="#0064D4"/>
<path d="M55.7142 0H51.4285V4.28571H55.7142V0Z" fill="#0064D4"/>
<path d="M51.4285 0H47.1428V4.28571H51.4285V0Z" fill="#0064D4"/>
<path d="M47.1429 4.28571H42.8572V8.57142H47.1429V4.28571Z" fill="#0064D4"/>
<path d="M42.8572 8.57144H38.5715V12.8572H42.8572V8.57144Z" fill="#0064D4"/>
<path d="M38.5714 12.8571H34.2856V17.1429H38.5714V12.8571Z" fill="#0064D4"/>
<path d="M34.2857 12.8571H30V17.1429H34.2857V12.8571Z" fill="#0A69D5"/>
<path d="M30.0001 12.8571H25.7144V17.1429H30.0001V12.8571Z" fill="#0A69D5"/>
<path d="M25.7142 12.8571H21.4285V17.1429H25.7142V12.8571Z" fill="#B6D8FE"/>
<path d="M21.4285 12.8571H17.1428V17.1429H21.4285V12.8571Z" fill="#B6D8FE"/>
<path d="M21.4285 17.1429H17.1428V21.4286H21.4285V17.1429Z" fill="#0A69D5"/>
<path d="M21.4285 21.4286H17.1428V25.7143H21.4285V21.4286Z" fill="#B6D8FE"/>
<path d="M17.1429 21.4286H12.8572V25.7143H17.1429V21.4286Z" fill="#0A69D5"/>
<path d="M17.1429 17.1429H12.8572V21.4286H17.1429V17.1429Z" fill="#B6D8FE"/>
<path d="M12.8572 21.4286H8.57153V25.7143H12.8572V21.4286Z" fill="#B6D8FE"/>
<path d="M12.8572 25.7143H8.57153V30H12.8572V25.7143Z" fill="#B6D8FE"/>
<path d="M12.8572 30H8.57153V34.2857H12.8572V30Z" fill="#0A69D5"/>
<path d="M8.57136 30H4.28564V34.2857H8.57136V30Z" fill="#B6D8FE"/>
<path d="M17.1429 30H12.8572V34.2857H17.1429V30Z" fill="#B6D8FE"/>
<path d="M21.4285 30H17.1428V34.2857H21.4285V30Z" fill="#0A69D5"/>
<path d="M25.7142 30H21.4285V34.2857H25.7142V30Z" fill="#B6D8FE"/>
<path d="M30.0001 30H25.7144V34.2857H30.0001V30Z" fill="#0A69D5"/>
<path d="M34.2857 30H30V34.2857H34.2857V30Z" fill="#0A69D5"/>
<path d="M38.5714 30H34.2856V34.2857H38.5714V30Z" fill="#B6D8FE"/>
<path d="M42.8572 30H38.5715V34.2857H42.8572V30Z" fill="#0A69D5"/>
<path d="M47.1429 30H42.8572V34.2857H47.1429V30Z" fill="#0A69D5"/>
<path d="M51.4285 30H47.1428V34.2857H51.4285V30Z" fill="#B6D8FE"/>
<path d="M55.7142 30H51.4285V34.2857H55.7142V30Z" fill="#B6D8FE"/>
<path d="M51.4285 25.7143H47.1428V30H51.4285V25.7143Z" fill="#0A69D5"/>
<path d="M47.1429 25.7143H42.8572V30H47.1429V25.7143Z" fill="#B6D8FE"/>
<path d="M42.8572 25.7143H38.5715V30H42.8572V25.7143Z" fill="#B6D8FE"/>
<path d="M38.5714 25.7143H34.2856V30H38.5714V25.7143Z" fill="#0A69D5"/>
<path d="M34.2857 25.7143H30V30H34.2857V25.7143Z" fill="#B6D8FE"/>
<path d="M30.0001 25.7143H25.7144V30H30.0001V25.7143Z" fill="#B6D8FE"/>
<path d="M25.7142 25.7143H21.4285V30H25.7142V25.7143Z" fill="#0A69D5"/>
<path d="M21.4285 25.7143H17.1428V30H21.4285V25.7143Z" fill="#B6D8FE"/>
<path d="M17.1429 25.7143H12.8572V30H17.1429V25.7143Z" fill="#0A69D5"/>
<path d="M25.7142 21.4286H21.4285V25.7143H25.7142V21.4286Z" fill="#B6D8FE"/>
<path d="M25.7142 17.1429H21.4285V21.4286H25.7142V17.1429Z" fill="#0A69D5"/>
<path d="M30.0001 17.1429H25.7144V21.4286H30.0001V17.1429Z" fill="#B6D8FE"/>
<path d="M30.0001 21.4286H25.7144V25.7143H30.0001V21.4286Z" fill="#0A69D5"/>
<path d="M34.2857 21.4286H30V25.7143H34.2857V21.4286Z" fill="#0A69D5"/>
<path d="M34.2857 17.1429H30V21.4286H34.2857V17.1429Z" fill="#B6D8FE"/>
<path d="M38.5714 17.1429H34.2856V21.4286H38.5714V17.1429Z" fill="#0A69D5"/>
<path d="M38.5714 21.4286H34.2856V25.7143H38.5714V21.4286Z" fill="#B6D8FE"/>
<path d="M42.8572 21.4286H38.5715V25.7143H42.8572V21.4286Z" fill="#0A69D5"/>
<path d="M42.8572 17.1429H38.5715V21.4286H42.8572V17.1429Z" fill="#0064D4"/>
<path d="M47.1429 21.4286H42.8572V25.7143H47.1429V21.4286Z" fill="#0064D4"/>
<path d="M51.4285 12.8571H47.1428V17.1429H51.4285V12.8571Z" fill="#6D9FD8"/>
<path d="M55.7142 8.57144H51.4285V12.8572H55.7142V8.57144Z" fill="#6D9FD8"/>
<path d="M60.0001 4.28571H55.7144V8.57142H60.0001V4.28571Z" fill="#0064D4"/>
<path d="M60.0001 8.57144H55.7144V12.8572H60.0001V8.57144Z" fill="#0064D4"/>
<path d="M55.7142 12.8571H51.4285V17.1429H55.7142V12.8571Z" fill="#0064D4"/>
<path d="M42.8572 12.8571H38.5715V17.1429H42.8572V12.8571Z" fill="#6D9FD8"/>
<path d="M55.7142 38.5714H51.4285V42.8572H55.7142V38.5714Z" fill="#7FA6D2"/>
<path d="M55.7142 42.8571H51.4285V47.1429H55.7142V42.8571Z" fill="#7FA6D2"/>
<path d="M51.4285 42.8571H47.1428V47.1429H51.4285V42.8571Z" fill="#7FA6D2"/>
<path d="M51.4285 47.1429H47.1428V51.4286H51.4285V47.1429Z" fill="#7FA6D2"/>
<path d="M47.1429 47.1429H42.8572V51.4286H47.1429V47.1429Z" fill="#7FA6D2"/>
<path d="M42.8572 47.1429H38.5715V51.4286H42.8572V47.1429Z" fill="#7FA6D2"/>
<path d="M42.8572 51.4286H38.5715V55.7143H42.8572V51.4286Z" fill="#7FA6D2"/>
<path d="M38.5714 51.4286H34.2856V55.7143H38.5714V51.4286Z" fill="#7FA6D2"/>
<path d="M51.4285 38.5714H47.1428V42.8572H51.4285V38.5714Z" fill="#7FA6D2"/>
<path d="M47.1429 42.8571H42.8572V47.1429H47.1429V42.8571Z" fill="#7FA6D2"/>
<path d="M34.2857 51.4286H30V55.7143H34.2857V51.4286Z" fill="#7FA6D2"/>
<path d="M38.5714 47.1429H34.2856V51.4286H38.5714V47.1429Z" fill="#7FA6D2"/>
<path d="M30.0001 51.4286H25.7144V55.7143H30.0001V51.4286Z" fill="#7FA6D2"/>
<path d="M42.8572 42.8571H38.5715V47.1429H42.8572V42.8571Z" fill="#7FA6D2"/>
<path d="M34.2857 47.1429H30V51.4286H34.2857V47.1429Z" fill="#7FA6D2"/>
<path d="M25.7142 51.4286H21.4285V55.7143H25.7142V51.4286Z" fill="#7FA6D2"/>
<path d="M21.4285 51.4286H17.1428V55.7143H21.4285V51.4286Z" fill="#AAD2FE"/>
<path d="M21.4285 47.1429H17.1428V51.4286H21.4285V47.1429Z" fill="#AAD2FE"/>
<path d="M25.7142 47.1429H21.4285V51.4286H25.7142V47.1429Z" fill="#AAD2FE"/>
<path d="M30.0001 47.1429H25.7144V51.4286H30.0001V47.1429Z" fill="#AAD2FE"/>
<path d="M38.5714 42.8571H34.2856V47.1429H38.5714V42.8571Z" fill="#AAD2FE"/>
<path d="M34.2857 42.8571H30V47.1429H34.2857V42.8571Z" fill="#AAD2FE"/>
<path d="M30.0001 42.8571H25.7144V47.1429H30.0001V42.8571Z" fill="#AAD2FE"/>
<path d="M25.7142 42.8571H21.4285V47.1429H25.7142V42.8571Z" fill="#AAD2FE"/>
<path d="M21.4285 42.8571H17.1428V47.1429H21.4285V42.8571Z" fill="#AAD2FE"/>
<path d="M17.1429 42.8571H12.8572V47.1429H17.1429V42.8571Z" fill="#AAD2FE"/>
<path d="M12.8572 42.8571H8.57153V47.1429H12.8572V42.8571Z" fill="#AAD2FE"/>
<path d="M8.57136 42.8571H4.28564V47.1429H8.57136V42.8571Z" fill="#AAD2FE"/>
<path d="M12.8572 47.1429H8.57153V51.4286H12.8572V47.1429Z" fill="#AAD2FE"/>
<path d="M17.1429 47.1429H12.8572V51.4286H17.1429V47.1429Z" fill="#AAD2FE"/>
<path d="M47.1429 38.5714H42.8572V42.8572H47.1429V38.5714Z" fill="#AAD2FE"/>
<path d="M42.8572 38.5714H38.5715V42.8572H42.8572V38.5714Z" fill="#AAD2FE"/>
<path d="M38.5714 38.5714H34.2856V42.8572H38.5714V38.5714Z" fill="#AAD2FE"/>
<path d="M34.2857 38.5714H30V42.8572H34.2857V38.5714Z" fill="#AAD2FE"/>
<path d="M30.0001 38.5714H25.7144V42.8572H30.0001V38.5714Z" fill="#AAD2FE"/>
<path d="M25.7142 38.5714H21.4285V42.8572H25.7142V38.5714Z" fill="#AAD2FE"/>
<path d="M21.4285 38.5714H17.1428V42.8572H21.4285V38.5714Z" fill="#AAD2FE"/>
<path d="M17.1429 38.5714H12.8572V42.8572H17.1429V38.5714Z" fill="#AAD2FE"/>
<path d="M12.8572 38.5714H8.57153V42.8572H12.8572V38.5714Z" fill="#AAD2FE"/>
<path d="M8.57136 38.5714H4.28564V42.8572H8.57136V38.5714Z" fill="#AAD2FE"/>
</svg>
