<svg width="45" height="60" viewBox="0 0 45 60" fill="none" xmlns="http://www.w3.org/2000/svg">
<path d="M1.52344 1.875H35.6245V58.125H1.52344V1.875Z" fill="#FFAEC1"/>
<path d="M35.6245 1.93347H39.4333V56.2539H35.6245V1.93347Z" fill="#FFAEC1"/>
<path d="M39.4333 1.875H43.2422V50.6408H41.2792H39.4333V1.875Z" fill="#FFAEC1"/>
<path d="M39.4333 50.6408H41.2792V54.3832H39.4333V50.6408Z" fill="#FFAEC1"/>
<path d="M45 1.875H43.125V0H1.875V1.875H0V58.125H1.875V60H35.625V58.125H39.375V56.25H41.25V54.375H43.125V50.625H45V1.875ZM41.25 50.625V54.375H39.375V56.25H35.625V58.125H1.875V1.875H43.125V50.625H41.25Z" fill="#BC002D"/>
<path d="M39.375 28.125V7.5H37.5V5.625H7.5V7.5H5.625V28.125H7.5V30H37.5V28.125H7.5V7.5H37.5V28.125H39.375Z" fill="#BC002D"/>
<path d="M15 48.75H9.375V45H5.625V39.375H9.375V35.625H15V39.375H18.75V45H15V48.75ZM11.25 46.875H13.125V43.125H16.875V41.25H13.125V37.5H11.25V41.25H7.5V43.125H11.25V46.875Z" fill="#BC002D"/>
<path d="M39.375 37.5H37.5V35.625H33.75V37.5H31.875V41.25H33.75V43.125H37.5V41.25H39.375V37.5ZM37.5 37.5V41.25H33.75V37.5H37.5Z" fill="#BC002D"/>
<path d="M31.875 43.125H30V41.25H26.25V43.125H24.375V46.875H26.25V48.75H30V46.875H31.875V43.125ZM30 43.125V46.875H26.25V43.125H30Z" fill="#BC002D"/>
<path d="M9.375 13.125H11.25V15H9.375V13.125Z" fill="#BC002D"/>
<path d="M13.125 13.125H15V15H13.125V13.125Z" fill="#BC002D"/>
<path d="M16.875 13.125H18.75V15H16.875V13.125Z" fill="#BC002D"/>
<path d="M9.375 24.375H11.25V26.25H9.375V24.375Z" fill="#BC002D"/>
<path d="M13.125 24.375H15V26.25H13.125V24.375Z" fill="#BC002D"/>
<path d="M16.875 24.375H18.75V26.25H16.875V24.375Z" fill="#BC002D"/>
<path d="M9.375 9.375H11.25V11.25H9.375V9.375Z" fill="#BC002D"/>
<path d="M13.125 9.375H15V11.25H13.125V9.375Z" fill="#BC002D"/>
<path d="M16.875 9.375H18.75V11.25H16.875V9.375Z" fill="#BC002D"/>
<path d="M20.625 9.375H22.5V11.25H20.625V9.375Z" fill="#BC002D"/>
<path d="M24.375 9.375H26.25V11.25H24.375V9.375Z" fill="#BC002D"/>
<path d="M9.375 16.875H11.25V18.75H9.375V16.875Z" fill="#BC002D"/>
<path d="M9.375 20.625H11.25V22.5H9.375V20.625Z" fill="#BC002D"/>
<path d="M13.125 16.875H15V18.75H13.125V16.875Z" fill="#BC002D"/>
<path d="M13.125 20.625H15V22.5H13.125V20.625Z" fill="#BC002D"/>
</svg>
