<svg width="20" height="26" viewBox="0 0 20 26" fill="none" xmlns="http://www.w3.org/2000/svg">
<path d="M15.4915 0.000671387V1.93821L17.7468 1.93556L17.744 4.15084H19.9993V15.21H17.744L17.7468 17.4239H15.4915V21.5701H13.5181L13.5208 23.7841L11.2642 23.7814L11.1043 25.9994L9.01162 25.9954L8.88964 24.0406L6.7577 23.7827L6.49612 21.6897L4.50649 21.5688V17.4213H2.25121L2.25392 15.2073H0V4.5628C0.532647 3.88107 1.48138 4.19868 2.25528 4.14951L2.51686 2.05649L4.50784 1.93689V0.000671387H15.4915ZM13.098 1.93689H6.76041V4.15084L4.50513 4.14818L4.50784 6.36347H2.25257V12.9987H4.50784L4.50513 15.2126H6.76041V19.6352H9.01569L9.01298 21.8492L11.1056 21.8532L11.2655 19.6352H13.5208V15.2126H15.7761L15.7734 12.9987H18.0287V6.77808C17.496 6.09636 16.5473 6.41396 15.7734 6.36479L15.5118 4.27177L13.5208 4.15217C13.4978 3.60067 13.7282 2.12958 13.0993 1.93821L13.098 1.93689Z" fill="#000"/>
<path d="M6.7605 12.9974V6.36081H13.098L13.5209 6.77543V12.5827L13.098 12.9974H6.7605ZM11.2683 8.57211H9.01171V10.7874H11.2683V8.57211Z" fill="#000"/>
</svg>
