<svg width="73" height="72" viewBox="0 0 73 72" fill="none" xmlns="http://www.w3.org/2000/svg">
<rect x="15" y="46.6793" width="66.0045" height="15.5404" rx="6" transform="rotate(-45.0087 15 46.6793)" fill="#B3D7FF"/>
<path d="M5.46167 66.5385H10.9232V72H5.46167V66.5385Z" fill="#0064D4"/>
<path d="M0 66.5385H5.46158V72H0V66.5385Z" fill="#0064D4"/>
<path d="M32.7693 61.0774H38.2309V66.539H32.7693V61.0774Z" fill="#0064D4"/>
<path d="M27.3076 61.0774H32.7692V66.539H27.3076V61.0774Z" fill="#0064D4"/>
<path d="M21.8459 61.0774H27.3075V66.539H21.8459V61.0774Z" fill="#0064D4"/>
<path d="M10.9233 61.0774H16.3849V66.539H10.9233V61.0774Z" fill="#0064D4"/>
<path d="M5.46167 61.0774H10.9232V66.539H5.46167V61.0774Z" fill="#0064D4"/>
<path d="M0 61.0774H5.46158V66.539H0V61.0774Z" fill="#0064D4"/>
<path d="M27.3076 55.6152H32.7692V61.0767H27.3076V55.6152Z" fill="#0064D4"/>
<path d="M21.8459 55.6152H27.3075V61.0767H21.8459V55.6152Z" fill="#0064D4"/>
<path d="M16.3843 55.6152H21.8459V61.0767H16.3843V55.6152Z" fill="#0064D4"/>
<path d="M10.9233 55.6152H16.3849V61.0767H10.9233V55.6152Z" fill="#0064D4"/>
<path d="M5.46167 55.6152H10.9232V61.0767H5.46167V55.6152Z" fill="#0064D4"/>
<path d="M27.3076 50.1535H32.7692V55.6151H27.3076V50.1535Z" fill="#0064D4"/>
<path d="M21.8459 50.1535H27.3075V55.6151H21.8459V50.1535Z" fill="#0064D4"/>
<path d="M16.3843 50.1535H21.8459V55.6151H16.3843V50.1535Z" fill="#0064D4"/>
<path d="M10.9233 50.1535H16.3849V55.6151H10.9233V50.1535Z" fill="#0064D4"/>
<path d="M32.7693 44.6919H38.2309V50.1535H32.7693V44.6919Z" fill="#0064D4"/>
<path d="M21.8459 44.6919H27.3075V50.1535H21.8459V44.6919Z" fill="#0064D4"/>
<path d="M16.3843 44.6919H21.8459V50.1535H16.3843V44.6919Z" fill="#0064D4"/>
<path d="M10.9233 44.6919H16.3849V50.1535H10.9233V44.6919Z" fill="#0064D4"/>
<path d="M5.46167 44.6919H10.9232V50.1535H5.46167V44.6919Z" fill="#0064D4"/>
<path d="M38.2302 39.2303H43.6918V44.6919H38.2302V39.2303Z" fill="#0064D4"/>
<path d="M16.3843 39.2303H21.8459V44.6919H16.3843V39.2303Z" fill="#0064D4"/>
<path d="M10.9233 39.2303H16.3849V44.6919H10.9233V39.2303Z" fill="#0064D4"/>
<path d="M5.46167 39.2303H10.9232V44.6919H5.46167V39.2303Z" fill="#0064D4"/>
<path d="M43.6919 33.7692H49.1535V39.2308H43.6919V33.7692Z" fill="#0064D4"/>
<path d="M21.8459 33.7692H27.3075V39.2308H21.8459V33.7692Z" fill="#0064D4"/>
<path d="M5.46167 33.7692H10.9232V39.2308H5.46167V33.7692Z" fill="#0064D4"/>
<path d="M49.1536 28.3076H54.6151V33.7691H49.1536V28.3076Z" fill="#0064D4"/>
<path d="M27.3076 28.3076H32.7692V33.7691H27.3076V28.3076Z" fill="#0064D4"/>
<path d="M54.6152 22.8459H60.0768V28.3075H54.6152V22.8459Z" fill="#0064D4"/>
<path d="M32.7693 22.8459H38.2309V28.3075H32.7693V22.8459Z" fill="#0064D4"/>
<path d="M60.0774 17.3843H65.539V22.8459H60.0774V17.3843Z" fill="#0064D4"/>
<path d="M38.2302 17.3843H43.6918V22.8459H38.2302V17.3843Z" fill="#0064D4"/>
<path d="M65.5383 11.9233H70.9999V17.3849H65.5383V11.9233Z" fill="#0064D4"/>
<path d="M43.6919 11.9233H49.1535V17.3849H43.6919V11.9233Z" fill="#0064D4"/>
<path d="M65.5383 6.46155H70.9999V11.9231H65.5383V6.46155Z" fill="#0064D4"/>
<path d="M49.1536 6.46155H54.6151V11.9231H49.1536V6.46155Z" fill="#0064D4"/>
<path d="M65.5383 1H70.9999V6.46158H65.5383V1Z" fill="#0064D4"/>
<path d="M60.0774 1H65.539V6.46158H60.0774V1Z" fill="#0064D4"/>
<path d="M54.6152 1H60.0768V6.46158H54.6152V1Z" fill="#0064D4"/>
</svg>
