<svg width="71" height="71" viewBox="0 0 71 71" fill="none" xmlns="http://www.w3.org/2000/svg">
<circle cx="36" cy="36" r="31" fill="#B6D8FE"/>
<path d="M68.7812 26.625V19.9688H66.5625V15.5312H64.3438V13.3125H62.125V11.0938H59.9062V8.875H57.6875V6.65625H55.4688V4.4375H51.0312V2.21875H44.375V0H26.625V2.21875H19.9688V4.4375H15.5312V6.65625H13.3125V8.875H11.0938V11.0938H8.875V13.3125H6.65625V15.5312H4.4375V19.9688H2.21875V26.625H0V44.375H2.21875V51.0312H4.4375V55.4688H6.65625V57.6875H8.875V59.9062H11.0938V62.125H13.3125V64.3438H15.5312V66.5625H19.9688V68.7812H26.625V71H44.375V68.7812H51.0312V66.5625H55.4688V64.3438H57.6875V62.125H59.9062V59.9062H62.125V57.6875H64.3438V55.4688H66.5625V51.0312H68.7812V44.375H71V26.625H68.7812ZM26.625 62.125H22.1875V59.9062H17.75V57.6875H15.5312V55.4688H13.3125V53.25H11.0938V48.8125H8.875V44.375H11.0938V48.8125H13.3125V53.25H15.5312V55.4688H17.75V57.6875H22.1875V59.9062H26.625V62.125ZM26.625 55.4688H22.1875V53.25H19.9688V51.0312H17.75V48.8125H15.5312V44.375H17.75V48.8125H19.9688V51.0312H22.1875V53.25H26.625V55.4688ZM48.8125 39.9375H46.5938V44.375H44.375V46.5938H39.9375V48.8125H31.0625V46.5938H26.625V44.375H24.4062V39.9375H22.1875V31.0625H24.4062V26.625H26.625V24.4062H31.0625V22.1875H39.9375V24.4062H44.375V26.625H46.5938V31.0625H48.8125V39.9375ZM55.4688 26.625H53.25V22.1875H51.0312V19.9688H48.8125V17.75H44.375V15.5312H48.8125V17.75H51.0312V19.9688H53.25V22.1875H55.4688V26.625ZM62.125 26.625H59.9062V22.1875H57.6875V17.75H55.4688V15.5312H53.25V13.3125H48.8125V11.0938H44.375V8.875H48.8125V11.0938H53.25V13.3125H55.4688V15.5312H57.6875V17.75H59.9062V22.1875H62.125V26.625Z" fill="#0064D4"/>
<path d="M33.2812 33.2812H37.7188V37.7188H33.2812V33.2812Z" fill="#0064D4"/>
</svg>
